<svg xmlns="http://www.w3.org/2000/svg" xmlns:xlink="http://www.w3.org/1999/xlink" version="1.1" width="256" height="256" viewBox="0 0 256 256" xml:space="preserve">

<defs>
</defs>
<g style="stroke: none; stroke-width: 0; stroke-dasharray: none; stroke-linecap: butt; stroke-linejoin: miter; stroke-miterlimit: 10; fill: none; fill-rule: nonzero; opacity: 1;" transform="translate(1.4065934065934016 1.4065934065934016) scale(2.81 2.81)" >
	<path d="M 83.974 80.388 H 6.026 C 3.25 80.388 1 78.138 1 75.362 v -0.909 h 88 v 0.909 C 89 78.138 86.75 80.388 83.974 80.388 z" style="stroke: none; stroke-width: 1; stroke-dasharray: none; stroke-linecap: butt; stroke-linejoin: miter; stroke-miterlimit: 10; fill: rgb(238,240,245); fill-rule: nonzero; opacity: 1;" transform=" matrix(1 0 0 1 0 0) " stroke-linecap="round" />
	<path d="M 79.004 23.032 c 2.936 0 5.317 2.381 5.317 5.317 v 46.104 H 5.679 V 28.349 c 0 -2.936 2.381 -5.317 5.317 -5.317 H 79.004 z" style="stroke: none; stroke-width: 1; stroke-dasharray: none; stroke-linecap: butt; stroke-linejoin: miter; stroke-miterlimit: 10; fill: rgb(238,240,245); fill-rule: nonzero; opacity: 1;" transform=" matrix(1 0 0 1 0 0) " stroke-linecap="round" />
	<path d="M 78.888 68.453 V 30.675 c 0 -1.019 -0.826 -1.846 -1.846 -1.846 H 52.068 H 37.932 H 12.958 c -1.02 0 -1.846 0.826 -1.846 1.846 v 37.778 v 6 h 67.776 V 68.453 z" style="stroke: none; stroke-width: 1; stroke-dasharray: none; stroke-linecap: butt; stroke-linejoin: miter; stroke-miterlimit: 10; fill: rgb(196,227,255); fill-rule: nonzero; opacity: 1;" transform=" matrix(1 0 0 1 0 0) " stroke-linecap="round" />
	<rect x="40.16" y="74.45" rx="0" ry="0" width="9.67" height="5.93" style="stroke: none; stroke-width: 1; stroke-dasharray: none; stroke-linecap: butt; stroke-linejoin: miter; stroke-miterlimit: 10; fill: rgb(215,216,219); fill-rule: nonzero; opacity: 1;" transform=" matrix(1 0 0 1 0 0) "/>
	<path d="M 85.321 75.493 H 4.679 V 28.389 c 0 -3.483 2.834 -6.317 6.317 -6.317 l 13.864 -0.04 c 0.001 0 0.002 0 0.003 0 c 0.551 0 0.999 0.446 1 0.997 c 0.001 0.552 -0.445 1.001 -0.997 1.003 l -13.867 0.04 c -2.384 0 -4.32 1.937 -4.32 4.317 v 45.104 h 76.643 V 28.389 c 0 -2.38 -1.937 -4.317 -4.317 -4.317 H 65.49 c -0.553 0 -1 -0.448 -1 -1 s 0.447 -1 1 -1 h 13.514 c 3.483 0 6.317 2.834 6.317 6.317 V 75.493 z" style="stroke: none; stroke-width: 1; stroke-dasharray: none; stroke-linecap: butt; stroke-linejoin: miter; stroke-miterlimit: 10; fill: rgb(0,0,0); fill-rule: nonzero; opacity: 1;" transform=" matrix(1 0 0 1 0 0) " stroke-linecap="round" />
	<path d="M 83.974 81.428 H 6.026 C 2.703 81.428 0 78.725 0 75.401 v -0.908 c 0 -0.553 0.448 -1 1 -1 h 88 c 0.553 0 1 0.447 1 1 v 0.908 C 90 78.725 87.297 81.428 83.974 81.428 z M 2.001 75.493 c 0.049 2.178 1.835 3.935 4.025 3.935 h 77.948 c 2.189 0 3.977 -1.757 4.025 -3.935 H 2.001 z" style="stroke: none; stroke-width: 1; stroke-dasharray: none; stroke-linecap: butt; stroke-linejoin: miter; stroke-miterlimit: 10; fill: rgb(0,0,0); fill-rule: nonzero; opacity: 1;" transform=" matrix(1 0 0 1 0 0) " stroke-linecap="round" />
	<path d="M 50.836 81.428 H 39.164 v -7.935 h 11.672 V 81.428 z M 41.164 79.428 h 7.672 v -3.935 h -7.672 V 79.428 z" style="stroke: none; stroke-width: 1; stroke-dasharray: none; stroke-linecap: butt; stroke-linejoin: miter; stroke-miterlimit: 10; fill: rgb(0,0,0); fill-rule: nonzero; opacity: 1;" transform=" matrix(1 0 0 1 0 0) " stroke-linecap="round" />
	<path d="M 78.888 69.493 c -0.553 0 -1 -0.447 -1 -1 V 30.715 c 0 -0.466 -0.379 -0.846 -0.846 -0.846 h -6.405 c -0.553 0 -1 -0.448 -1 -1 s 0.447 -1 1 -1 h 6.405 c 1.569 0 2.846 1.276 2.846 2.846 v 37.778 C 79.888 69.046 79.44 69.493 78.888 69.493 z" style="stroke: none; stroke-width: 1; stroke-dasharray: none; stroke-linecap: butt; stroke-linejoin: miter; stroke-miterlimit: 10; fill: rgb(0,0,0); fill-rule: nonzero; opacity: 1;" transform=" matrix(1 0 0 1 0 0) " stroke-linecap="round" />
	<path d="M 11.112 69.493 c -0.552 0 -1 -0.447 -1 -1 V 30.715 c 0 -1.569 1.277 -2.846 2.846 -2.846 h 6.405 c 0.552 0 1 0.448 1 1 s -0.448 1 -1 1 h -6.405 c -0.467 0 -0.846 0.379 -0.846 0.846 v 37.778 C 12.112 69.046 11.664 69.493 11.112 69.493 z" style="stroke: none; stroke-width: 1; stroke-dasharray: none; stroke-linecap: butt; stroke-linejoin: miter; stroke-miterlimit: 10; fill: rgb(0,0,0); fill-rule: nonzero; opacity: 1;" transform=" matrix(1 0 0 1 0 0) " stroke-linecap="round" />
	<path d="M 48.078 9.572 h -6.157 c -1.222 0 -2.221 1 -2.221 2.221 c 0 1.222 1 2.221 2.221 2.221 h 0.173 v 6.394 h 5.811 v -6.394 h 0.173 c 1.222 0 2.221 -1 2.221 -2.221 C 50.299 10.572 49.3 9.572 48.078 9.572 z" style="stroke: none; stroke-width: 1; stroke-dasharray: none; stroke-linecap: butt; stroke-linejoin: miter; stroke-miterlimit: 10; fill: rgb(255,44,0); fill-rule: nonzero; opacity: 1;" transform=" matrix(1 0 0 1 0 0) " stroke-linecap="round" />
	<circle cx="45.001999999999995" cy="41.872" r="23.552" style="stroke: none; stroke-width: 1; stroke-dasharray: none; stroke-linecap: butt; stroke-linejoin: miter; stroke-miterlimit: 10; fill: rgb(255,44,0); fill-rule: nonzero; opacity: 1;" transform="  matrix(1 0 0 1 0 0) "/>
	<path d="M 63.5 41.87 c 0 4.503 -1.609 8.631 -4.284 11.839 c -1.409 1.691 -3.115 3.126 -5.036 4.226 c -2.705 1.549 -5.839 2.435 -9.18 2.435 c -10.217 0 -18.5 -8.283 -18.5 -18.5 s 8.283 -18.5 18.5 -18.5 S 63.5 31.653 63.5 41.87 z" style="stroke: none; stroke-width: 1; stroke-dasharray: none; stroke-linecap: butt; stroke-linejoin: miter; stroke-miterlimit: 10; fill: rgb(238,240,245); fill-rule: nonzero; opacity: 1;" transform=" matrix(1 0 0 1 0 0) " stroke-linecap="round" />
	<path d="M 45 61.37 c -10.752 0 -19.5 -8.748 -19.5 -19.5 s 8.748 -19.5 19.5 -19.5 c 10.752 0 19.5 8.748 19.5 19.5 c 0 4.554 -1.604 8.987 -4.515 12.48 c -1.499 1.797 -3.285 3.295 -5.309 4.454 C 51.744 60.482 48.397 61.37 45 61.37 z M 45 24.37 c -9.649 0 -17.5 7.851 -17.5 17.5 c 0 9.65 7.851 17.5 17.5 17.5 c 3.05 0 6.052 -0.796 8.683 -2.303 c 1.816 -1.04 3.42 -2.386 4.767 -3.999 c 2.612 -3.134 4.051 -7.111 4.051 -11.199 C 62.5 32.22 54.649 24.37 45 24.37 z" style="stroke: none; stroke-width: 1; stroke-dasharray: none; stroke-linecap: butt; stroke-linejoin: miter; stroke-miterlimit: 10; fill: rgb(0,0,0); fill-rule: nonzero; opacity: 1;" transform=" matrix(1 0 0 1 0 0) " stroke-linecap="round" />
	<path d="M 34.442 42.87 h -1.144 c -0.552 0 -1 -0.448 -1 -1 s 0.448 -1 1 -1 h 1.144 c 0.552 0 1 0.448 1 1 S 34.995 42.87 34.442 42.87 z" style="stroke: none; stroke-width: 1; stroke-dasharray: none; stroke-linecap: butt; stroke-linejoin: miter; stroke-miterlimit: 10; fill: rgb(0,0,0); fill-rule: nonzero; opacity: 1;" transform=" matrix(1 0 0 1 0 0) " stroke-linecap="round" />
	<path d="M 57.063 42.87 H 55.92 c -0.553 0 -1 -0.448 -1 -1 s 0.447 -1 1 -1 h 1.144 c 0.553 0 1 0.448 1 1 S 57.616 42.87 57.063 42.87 z" style="stroke: none; stroke-width: 1; stroke-dasharray: none; stroke-linecap: butt; stroke-linejoin: miter; stroke-miterlimit: 10; fill: rgb(0,0,0); fill-rule: nonzero; opacity: 1;" transform=" matrix(1 0 0 1 0 0) " stroke-linecap="round" />
	<path d="M 45.181 54.752 c -0.552 0 -1 -0.447 -1 -1 v -1.144 c 0 -0.553 0.448 -1 1 -1 s 1 0.447 1 1 v 1.144 C 46.182 54.305 45.733 54.752 45.181 54.752 z" style="stroke: none; stroke-width: 1; stroke-dasharray: none; stroke-linecap: butt; stroke-linejoin: miter; stroke-miterlimit: 10; fill: rgb(0,0,0); fill-rule: nonzero; opacity: 1;" transform=" matrix(1 0 0 1 0 0) " stroke-linecap="round" />
	<path d="M 45.181 32.131 c -0.552 0 -1 -0.448 -1 -1 v -1.144 c 0 -0.552 0.448 -1 1 -1 s 1 0.448 1 1 v 1.144 C 46.182 31.684 45.733 32.131 45.181 32.131 z" style="stroke: none; stroke-width: 1; stroke-dasharray: none; stroke-linecap: butt; stroke-linejoin: miter; stroke-miterlimit: 10; fill: rgb(0,0,0); fill-rule: nonzero; opacity: 1;" transform=" matrix(1 0 0 1 0 0) " stroke-linecap="round" />
	<circle cx="45.004999999999995" cy="41.865" r="2.345" style="stroke: none; stroke-width: 1; stroke-dasharray: none; stroke-linecap: butt; stroke-linejoin: miter; stroke-miterlimit: 10; fill: rgb(255,255,255); fill-rule: nonzero; opacity: 1;" transform="  matrix(1 0 0 1 0 0) "/>
	<path d="M 45 45.215 c -1.844 0 -3.345 -1.5 -3.345 -3.345 c 0 -1.844 1.5 -3.345 3.345 -3.345 c 1.845 0 3.345 1.5 3.345 3.345 C 48.345 43.714 46.845 45.215 45 45.215 z M 45 40.525 c -0.742 0 -1.345 0.603 -1.345 1.345 s 0.603 1.345 1.345 1.345 s 1.345 -0.604 1.345 -1.345 S 45.742 40.525 45 40.525 z" style="stroke: none; stroke-width: 1; stroke-dasharray: none; stroke-linecap: butt; stroke-linejoin: miter; stroke-miterlimit: 10; fill: rgb(0,0,0); fill-rule: nonzero; opacity: 1;" transform=" matrix(1 0 0 1 0 0) " stroke-linecap="round" />
	<path d="M 43.618 40.979 c -0.309 0 -0.612 -0.142 -0.808 -0.41 l -5.767 -7.887 c -0.326 -0.446 -0.229 -1.072 0.217 -1.397 c 0.447 -0.327 1.072 -0.229 1.397 0.217 l 5.767 7.887 c 0.326 0.446 0.229 1.072 -0.217 1.397 C 44.029 40.917 43.823 40.979 43.618 40.979 z" style="stroke: none; stroke-width: 1; stroke-dasharray: none; stroke-linecap: butt; stroke-linejoin: miter; stroke-miterlimit: 10; fill: rgb(0,0,0); fill-rule: nonzero; opacity: 1;" transform=" matrix(1 0 0 1 0 0) " stroke-linecap="round" />
	<path d="M 47.153 41.943 c -0.387 0 -0.756 -0.227 -0.919 -0.605 c -0.218 -0.507 0.017 -1.095 0.523 -1.313 l 4.613 -1.985 c 0.504 -0.218 1.096 0.014 1.314 0.523 c 0.218 0.507 -0.017 1.095 -0.523 1.313 l -4.613 1.985 C 47.42 41.917 47.286 41.943 47.153 41.943 z" style="stroke: none; stroke-width: 1; stroke-dasharray: none; stroke-linecap: butt; stroke-linejoin: miter; stroke-miterlimit: 10; fill: rgb(0,0,0); fill-rule: nonzero; opacity: 1;" transform=" matrix(1 0 0 1 0 0) " stroke-linecap="round" />
	<path d="M 45 66.422 c -13.538 0 -24.552 -11.014 -24.552 -24.552 c 0 -13.538 11.014 -24.552 24.552 -24.552 S 69.552 28.332 69.552 41.87 C 69.552 55.408 58.538 66.422 45 66.422 z M 45 19.318 c -12.435 0 -22.552 10.117 -22.552 22.552 S 32.565 64.422 45 64.422 c 12.436 0 22.552 -10.117 22.552 -22.552 S 57.436 19.318 45 19.318 z" style="stroke: none; stroke-width: 1; stroke-dasharray: none; stroke-linecap: butt; stroke-linejoin: miter; stroke-miterlimit: 10; fill: rgb(0,0,0); fill-rule: nonzero; opacity: 1;" transform=" matrix(1 0 0 1 0 0) " stroke-linecap="round" />
	<path d="M 48.078 15.014 h -6.157 c -1.776 0 -3.221 -1.445 -3.221 -3.221 c 0 -1.776 1.445 -3.221 3.221 -3.221 h 6.157 c 1.776 0 3.222 1.445 3.222 3.221 C 51.3 13.569 49.854 15.014 48.078 15.014 z M 41.921 10.572 c -0.673 0 -1.221 0.547 -1.221 1.221 s 0.547 1.221 1.221 1.221 h 6.157 c 0.674 0 1.222 -0.548 1.222 -1.221 s -0.548 -1.221 -1.222 -1.221 H 41.921 z" style="stroke: none; stroke-width: 1; stroke-dasharray: none; stroke-linecap: butt; stroke-linejoin: miter; stroke-miterlimit: 10; fill: rgb(0,0,0); fill-rule: nonzero; opacity: 1;" transform=" matrix(1 0 0 1 0 0) " stroke-linecap="round" />
	<path d="M 47.905 19.318 c -0.553 0 -1 -0.448 -1 -1 v -4.304 c 0 -0.552 0.447 -1 1 -1 s 1 0.448 1 1 v 4.304 C 48.905 18.87 48.458 19.318 47.905 19.318 z" style="stroke: none; stroke-width: 1; stroke-dasharray: none; stroke-linecap: butt; stroke-linejoin: miter; stroke-miterlimit: 10; fill: rgb(0,0,0); fill-rule: nonzero; opacity: 1;" transform=" matrix(1 0 0 1 0 0) " stroke-linecap="round" />
	<path d="M 42.094 19.496 c -0.552 0 -1 -0.448 -1 -1 v -4.481 c 0 -0.552 0.448 -1 1 -1 s 1 0.448 1 1 v 4.481 C 43.094 19.048 42.646 19.496 42.094 19.496 z" style="stroke: none; stroke-width: 1; stroke-dasharray: none; stroke-linecap: butt; stroke-linejoin: miter; stroke-miterlimit: 10; fill: rgb(0,0,0); fill-rule: nonzero; opacity: 1;" transform=" matrix(1 0 0 1 0 0) " stroke-linecap="round" />
</g>
</svg>